<?xml version="1.0" encoding="UTF-8" standalone="no"?>
<!-- Created with Inkscape (http://www.inkscape.org/) -->

<svg
   width="68.08371mm"
   height="13.437132mm"
   viewBox="0 0 68.08371 13.437132"
   version="1.1"
   id="svg1"
   xml:space="preserve"
   xmlns="http://www.w3.org/2000/svg"
   xmlns:svg="http://www.w3.org/2000/svg"><defs
     id="defs1" /><g
     id="layer1"
     transform="translate(-133.47428,-69.188492)"><g
       id="g230"
       style="fill:#ffffff"
       transform="matrix(0.13909027,0,0,0.13909012,297.05527,-10.392399)"><path
         d="m 38.830328,151.38227 h 7.080486 v 25.56071 h -7.080486 z m 10.795792,25.56071 v -25.56071 h 19.470924 v 4.95578 H 56.706365 v 5.27424 h 11.398607 v 4.95668 H 56.706365 v 5.41598 h 12.390679 v 4.95803 z m 23.437797,0 v -25.56071 h 19.465949 v 4.95578 h -12.38728 v 5.27424 h 11.39477 v 4.95668 h -11.39477 v 5.41598 h 12.38728 v 4.95803 z m 23.430569,0 v -25.56071 h 19.470704 v 4.95578 h -12.38616 v 5.27424 h 11.39567 v 4.95668 h -11.39567 v 5.41598 h 12.38592 v 4.95803 z"
         fill="#1a1918"
         id="path1"
         style="fill:#ffffff;fill-opacity:1;stroke-width:0.226034"
         transform="matrix(3.7795276,0,0,3.7795275,-1322.8381,0)" /><text
         xml:space="preserve"
         style="font-size:48px;line-height:1.1;font-family:'Segoe UI';-inkscape-font-specification:'Segoe UI';text-align:start;writing-mode:lr-tb;direction:ltr;text-anchor:start;opacity:1;fill:#ffffff;fill-opacity:1;stroke-width:1.87087"
         x="-857.42078"
         y="611.35938"
         id="text206"><tspan
           id="tspan206"
           x="-857.42078"
           y="611.35938">Sección</tspan><tspan
           x="-857.42078"
           y="664.15936"
           id="tspan207">Ecuador</tspan></text></g></g><style
     type="text/css"
     id="style1">
	.st0{fill:#FFFFFF;}
</style></svg>
